<svg xmlns="http://www.w3.org/2000/svg" version="1.1" xmlns:xlink="http://www.w3.org/1999/xlink" xmlns:svgjs="http://svgjs.dev/svgjs" width="100%" height="100%" viewBox="0 0 1000 600"><rect width="1000" height="600" x="0" y="0" fill="#2f3c7e"/><g><rect width="333.3333333333333" height="333.3333333333333" rx="13.333333333333334" ry="13.333333333333334" y="205.56403824505708" fill="#fbeaeb" transform="matrix(0.6817866316333683,0,0,0.6817866316333683,0,46.21807457222933)" x="183.34181213378906"/><path d="M289.73148659538947 447.23071715183494L289.73148659538947 447.23071715183494L236.19876848344867 447.23071715183494L236.19876848344867 297.2307162329997L289.73148659538947 297.2307162329997Q326.37339769900694 297.2307162329997 338.29632029311745 326.25520456815775L338.29632029311745 326.25520456815775Q345.25135847301533 342.96536123414603 345.25135847301533 370.0629125843973L345.25135847301533 370.0629125843973Q345.25135847301533 426.63657812564395 317.069905068754 441.3896894163363L317.069905068754 441.3896894163363Q305.779258672816 447.23071715183494 289.73148659538947 447.23071715183494ZM328.1196843415787 370.0629125843973L328.1196843415787 370.0629125843973Q328.1196843415787 326.91758915671943 308.820206102122 316.2893273493431L308.820206102122 316.2893273493431Q301.02213299132745 311.9537191333029 289.73148659538947 311.9537191333029L289.73148659538947 311.9537191333029L252.87881675904777 311.9537191333029L252.87881675904777 432.4776058611426L289.73148659538947 432.4776058611426Q328.1196843415787 432.4776058611426 328.1196843415787 370.0629125843973ZM401.6142652815379 312.16447786602714L355.4279944245541 312.16447786602714L355.4279944245541 297.2307162329997L463.8181998255591 297.2307162329997L463.8181998255591 312.16447786602714L418.0835548244128 312.16447786602714L418.0835548244128 447.23071715183494L401.6142652815379 447.23071715183494L401.6142652815379 312.16447786602714Z " fill="#2f3c7e" transform="matrix(0.6817866316333683,0,0,0.6817866316333683,0,46.21807457222933)"/><path d="M650.8860094732794 445.17042758706907L650.8860094732794 445.17042758706907L600.0084837373547 445.17042758706907L600.0084837373547 302.61034141362865L650.8860094732794 302.61034141362865Q685.7105026232346 302.61034141362865 697.0420550368601 330.1952316326565L697.0420550368601 330.1952316326565Q703.6521272781417 346.07657403054066 703.6521272781417 371.830102243326L703.6521272781417 371.830102243326Q703.6521272781417 425.5977461453522 676.868457936845 439.6191115056464L676.868457936845 439.6191115056464Q666.1378211815178 445.17042758706907 650.8860094732794 445.17042758706907ZM687.3701744413918 371.830102243326L687.3701744413918 371.830102243326Q687.3701744413918 330.82476232230226 669.0279393476192 320.723656256621L669.0279393476192 320.723656256621Q661.6166462286066 316.6030917425753 650.8860094732794 316.6030917425753L650.8860094732794 316.6030917425753L615.8612111038914 316.6030917425753L615.8612111038914 431.14906222677484L650.8860094732794 431.14906222677484Q687.3701744413918 431.14906222677484 687.3701744413918 371.830102243326ZM800.2564731074341 432.4081236060665L800.2564731074341 432.4081236060665L806.2370146590697 431.7785929164206L806.6662401292829 443.9399812391248Q783.1732993929531 447.23070984409185 766.4907361173377 447.23070984409185L766.4907361173377 447.23070984409185Q744.2282417289523 447.23070984409185 734.9569715723495 434.3539457376992Q725.6857014157468 421.4771816313065 725.6857014157468 394.2929018511443L725.6857014157468 394.2929018511443Q725.6857014157468 340.09603247890504 768.7513235937934 340.09603247890504L768.7513235937934 340.09603247890504Q789.5544513834544 340.09603247890504 799.8558626685684 351.74235023735343Q810.1572739536826 363.38866799580194 810.1572739536826 388.31236029950855L810.1572739536826 388.31236029950855L809.327438044604 400.04452315199967L741.3381235628508 400.04452315199967Q741.3381235628508 417.1563118978281 747.5189703339194 425.39744092591945Q753.6998171049878 433.6385699540107 769.0660889386163 433.6385699540107Q784.4037457408973 433.6385699540107 800.2564731074341 432.4081236060665ZM741.1378183434181 387.6828296098628L794.7051570260114 387.6828296098628Q794.7051570260114 368.7396788577918 788.6387703803332 360.899160268566Q782.5437687033073 353.0872567106878 768.837168687836 353.0872567106878Q755.1591837037123 353.0872567106878 748.2343461176077 361.32838573877916Q741.3381235628508 369.5695147668704 741.1378183434181 387.6828296098628L741.1378183434181 387.6828296098628ZM851.992449783785 445.17042758706907L822.9195779346851 342.1563147359278L839.4018359908677 342.1563147359278L863.5243074168433 431.7785929164206L871.1359057552887 431.7785929164206L896.0595980589953 342.1563147359278L911.9409404568796 342.1563147359278L882.8966836391273 445.17042758706907L851.992449783785 445.17042758706907ZM949.6269367415888 316.8033969620081L905.7600936858112 316.8033969620081L905.7600936858112 302.61034141362865L1008.7742065369523 302.61034141362865L1008.7742065369523 316.8033969620081L965.3079739200402 316.8033969620081L965.3079739200402 445.17042758706907L949.6269367415888 445.17042758706907L949.6269367415888 316.8033969620081ZM1077.593356927784 432.4081236060665L1077.593356927784 432.4081236060665L1083.5452834480723 431.7785929164206L1083.9745089182852 443.9399812391248Q1060.4815681819557 447.23070984409185 1043.7990049063403 447.23070984409185L1043.7990049063403 447.23070984409185Q1021.5365105179548 447.23070984409185 1012.2652403613521 434.3539457376992Q1002.9939702047494 421.4771816313065 1002.9939702047494 394.2929018511443L1002.9939702047494 394.2929018511443Q1002.9939702047494 340.09603247890504 1046.059592382796 340.09603247890504L1046.059592382796 340.09603247890504Q1066.862720172457 340.09603247890504 1077.1641314575709 351.74235023735343Q1087.465542742685 363.38866799580194 1087.465542742685 388.31236029950855L1087.465542742685 388.31236029950855L1086.6357068336065 400.04452315199967L1018.6463923518533 400.04452315199967Q1018.6463923518533 417.1563118978281 1024.827239122922 425.39744092591945Q1031.0080858939905 433.6385699540107 1046.3743577276189 433.6385699540107Q1061.7120145299 433.6385699540107 1077.593356927784 432.4081236060665ZM1018.4460871324205 387.6828296098628L1072.0134258150138 387.6828296098628Q1072.0134258150138 368.7396788577918 1065.9470391693358 360.899160268566Q1059.8520374923098 353.0872567106878 1046.174052508186 353.0872567106878Q1032.4674524927148 353.0872567106878 1025.571229937958 361.32838573877916Q1018.6463923518533 369.5695147668704 1018.4460871324205 387.6828296098628L1018.4460871324205 387.6828296098628ZM1150.1038463624486 340.09603247890504L1150.1038463624486 340.09603247890504Q1156.914223823163 340.09603247890504 1173.1675616285652 342.5569251747934L1173.1675616285652 342.5569251747934L1178.1179620516896 343.18645586443927L1177.517046393391 355.748454626009Q1161.0347883372083 353.88847758841894 1153.1942697479826 353.88847758841894L1153.1942697479826 353.88847758841894Q1135.6818705632886 353.88847758841894 1129.3865636668302 362.2440667419004Q1123.119871801719 370.59965589538183 1123.119871801719 393.1483005972427Q1123.119871801719 415.6969452991036 1128.9859532279645 424.56760501684073Q1134.85203465421 433.43826473457796 1153.3945749674156 433.43826473457796L1153.3945749674156 433.43826473457796L1177.7173516128237 431.5782876969879L1178.3182672711223 444.34059167799035Q1159.1748112996183 447.23070984409185 1149.703235923583 447.23070984409185L1149.703235923583 447.23070984409185Q1125.5807644976073 447.23070984409185 1116.423954466395 434.86901630195484Q1107.2385294038347 422.50732275981795 1107.2385294038347 393.1483005972427Q1107.2385294038347 363.7892784346675 1117.1393302500833 351.94265545678627Q1127.040131096332 340.09603247890504 1150.1038463624486 340.09603247890504ZM1216.8627144962575 360.0693243594874L1216.8627144962575 445.17042758706907L1201.4105975685861 445.17042758706907L1201.4105975685861 297.23071552029126L1216.8627144962575 297.23071552029126L1216.8627144962575 347.9365510681308Q1233.3449725524401 340.09603247890504 1248.5967842606788 340.09603247890504L1248.5967842606788 340.09603247890504Q1269.1996068309068 340.09603247890504 1276.2961346050965 351.22727967309777Q1283.3926623792863 362.3585268672905 1283.3926623792863 390.773252995397L1283.3926623792863 390.773252995397L1283.3926623792863 445.17042758706907L1267.940545451615 445.17042758706907L1267.940545451615 391.20247846561006Q1267.940545451615 369.7698199863032 1263.734135843527 361.8434563030348Q1259.4991112040912 353.88847758841894 1245.9069713140098 353.88847758841894L1245.9069713140098 353.88847758841894Q1232.915747082227 353.88847758841894 1220.7829737908705 358.6385727921105L1220.7829737908705 358.6385727921105L1216.8627144962575 360.0693243594874Z " fill="#fbeaeb" transform="matrix(0.6817866316333683,0,0,0.6817866316333683,0,46.21807457222933)"/></g></svg>